<?xml version="1.0" encoding="utf-8"?>
<!-- Generator: Adobe Illustrator 21.1.0, SVG Export Plug-In . SVG Version: 6.00 Build 0)  -->
<svg version="1.1" id="Sushi" xmlns="http://www.w3.org/2000/svg" xmlns:xlink="http://www.w3.org/1999/xlink" x="0px" y="0px"
	 viewBox="0 0 52.72 61.685" style="enable-background:new 0 0 52.72 61.685;" xml:space="preserve">
<style type="text/css">
	.st0{fill:#222282;}
	.st1{fill:#212172;}
	.st2{fill:#3B3B9B;}
	.st3{fill:#3C3C8C;}
	.st4{fill:#F4F1DE;}
	.st5{fill:#EA5454;}
	.st6{fill:#DB4343;}
	.st7{fill:#EAE4CE;}
	.st8{fill:#CEC8AE;}
	.st9{fill:#FFFBE6;}
	.st10{fill:#E2DEC9;}
</style>
<g id="Body">
	<path class="st0" d="M52.579,19.19h-52.5v29.066h0.014c0.109,2.166,1.266,4.226,3.664,5.906l6.492,4.023
		c3.946,2.257,9.667,3.5,15.941,3.5s12.02-1.243,16.012-3.5l6.572-4.023c2.432-1.68,3.63-3.74,3.782-5.906h0.023V19.19z"/>
	<path class="st1" d="M26.686,19.19v42.491c6.154-0.024,11.785-1.26,15.707-3.496l6.519-4.023c2.412-1.68,3.601-3.74,3.752-5.906
		h0.022V19.19H26.686z"/>
	<g>
		<path class="st2" d="M2.564,30.866c0,0,1.439,2.316,7.486,3.913C3.627,35.179,2.564,30.866,2.564,30.866z"/>
		<path class="st2" d="M1.611,47.954c0,0,1.439,2.316,7.486,3.913C2.674,52.268,1.611,47.954,1.611,47.954z"/>
		<path class="st2" d="M15.374,39.176c0,0,1.957,1.898,8.211,1.982C17.451,43.104,15.374,39.176,15.374,39.176z"/>
		<path class="st2" d="M42.479,33.766c0,0,2.681,0.496,7.933-2.9C46.384,35.884,42.479,33.766,42.479,33.766z"/>
		<path class="st2" d="M36.082,41.255c0,0,2.681,0.496,7.933-2.9C39.987,43.374,36.082,41.255,36.082,41.255z"/>
		<path class="st2" d="M42.833,48.515c0,0,2.712,0.278,7.675-3.528C46.896,50.313,42.833,48.515,42.833,48.515z"/>
		<path class="st2" d="M31.136,56.807c0,0,2.598,0.826,8.233-1.889C34.746,59.395,31.136,56.807,31.136,56.807z"/>
		<path class="st2" d="M15.146,53.432c0,0,1.788,2.058,8.012,2.674C16.881,57.522,15.146,53.432,15.146,53.432z"/>
		<path class="st2" d="M29.517,48.96c0,0,2.569,0.913,8.292-1.611C33.039,51.668,29.517,48.96,29.517,48.96z"/>
		<path class="st2" d="M7.802,43.216c0,0,1.668,2.157,7.846,3.128C9.3,47.398,7.802,43.216,7.802,43.216z"/>
	</g>
</g>
<g id="Top_1_">
	<g id="Top">
		<g>
			<path class="st3" d="M26.189,32.953c-6.377,0-12.141-1.256-16.015-3.536l-6.415-4.191C-2.376,20.524,1.075,12.867,9.432,8.15
				l6.516-4.205c3.187-2.287,6.897-3.551,10.636-3.559c3.739-0.008,7.421,1.243,10.557,3.52l6.421,4.191
				c8.246,4.707,11.511,12.384,5.257,17.107l-6.522,4.205C38.363,31.695,32.565,32.953,26.189,32.953z"/>
			<path class="st3" d="M26.58,0.772c3.647-0.007,7.232,1.203,10.272,3.408l6.422,4.191c7.968,4.557,11.05,11.988,4.976,16.56
				l-6.524,4.205c-3.805,2.212-9.393,3.43-15.533,3.43c-6.14,0-11.696-1.216-15.443-3.423l-6.417-4.191
				c-5.959-4.551-2.697-11.964,5.379-16.531l6.518-4.205C19.321,2.003,22.933,0.779,26.58,0.772 M26.589,0
				c-3.829,0.008-7.635,1.312-10.92,3.673L9.155,7.878C0.515,12.745-3.13,20.647,3.18,25.499l6.413,4.191
				c4.001,2.353,9.975,3.649,16.591,3.649s12.624-1.298,16.688-3.656l6.521-4.205c6.433-4.874,2.979-12.796-5.546-17.653
				l-6.419-4.191C34.196,1.282,30.418-0.008,26.589,0L26.589,0z"/>
		</g>
		<g>
			<path class="st4" d="M26.24,29.093c-4.11,0.001-7.866-0.853-10.477-2.405l-6.43-4.191c-4.312-3.2-2.517-8.414,3.064-11.624
				l6.532-4.205c2.2-1.556,4.872-2.417,7.613-2.421s5.393,0.846,7.558,2.397l6.434,4.191c5.506,3.204,7.173,8.427,2.782,11.641
				l-6.536,4.205C34.128,28.235,30.35,29.092,26.24,29.093z"/>
			<path class="st4" d="M26.537,4.632c2.631-0.005,5.173,0.807,7.239,2.285l6.436,4.192c5.237,3.053,6.774,8.031,2.575,11.094
				l-6.538,4.205c-2.524,1.482-6.108,2.299-10.004,2.3s-7.46-0.813-9.945-2.292l-6.431-4.191c-4.123-3.05-2.465-8.019,2.845-11.079
				l6.533-4.205C21.346,5.456,23.906,4.637,26.537,4.632 M26.546,3.86c-2.729,0.005-5.555,0.85-7.93,2.535L12.085,10.6
				c-5.865,3.367-7.799,8.814-3.292,12.169l6.428,4.191c2.831,1.68,6.867,2.519,11.013,2.518c4.146-0.001,8.204-0.843,11.078-2.526
				l6.535-4.205c4.591-3.37,2.79-8.828-2.996-12.187l-6.433-4.191C32.082,4.691,29.275,3.855,26.546,3.86L26.546,3.86z"/>
		</g>
		<g>
			<path class="st5" d="M24.711,23.523c-0.694-0.139-1.31-0.364-1.797-0.659l-6.444-4.191c-1.542-1.098-1.192-2.887,0.669-3.989
				l6.546-4.204c0.075-0.051,0.154-0.101,0.237-0.149c0.031,2.146,1.569,4.355,3.192,5.797
				C30.611,18.331,28.044,20.979,24.711,23.523z"/>
			<path class="st5" d="M23.45,11.164c0.318,1.964,1.717,3.888,3.188,5.197l0.05,0.044l0.06,0.039
				c2.73,1.726,1.406,3.753-2.241,6.613c-0.42-0.116-0.792-0.272-1.111-0.465L16.951,18.4c-1.335-0.948-1.049-2.493,0.554-3.443
				L23.45,11.164 M24.497,9.624c-0.42,0.152-0.821,0.34-1.175,0.584l-6.545,4.204c-2.121,1.253-2.54,3.286-0.792,4.534l6.443,4.191
				c0.687,0.415,1.559,0.691,2.515,0.83c3.53-2.662,6.574-5.614,2.641-8.071C25.647,14.171,24.208,11.72,24.497,9.624L24.497,9.624z
				"/>
		</g>
		<g>
			<path class="st6" d="M26.169,23.688c2.784-2.157,6.111-5.399,1.83-8.065c-1.975-1.762-3.107-4.004-2.994-5.749
				c0.486-0.148,0.98-0.223,1.475-0.224c1.037-0.001,2.019,0.291,2.775,0.823l6.446,4.191c1.835,1.099,2.14,2.89,0.571,3.993
				l-6.548,4.204c-0.896,0.534-2.112,0.828-3.415,0.828C26.263,23.689,26.216,23.689,26.169,23.688z"/>
			<path class="st6" d="M26.475,10.036c0.901-0.001,1.753,0.251,2.407,0.71l6.447,4.191c1.58,0.949,1.828,2.495,0.469,3.446
				l-6.549,4.204c-0.454,0.271-1.002,0.471-1.605,0.589c2.527-2.16,4.868-5.221,0.827-7.787c-1.835-1.64-2.915-3.64-2.939-5.248
				C25.846,10.072,26.161,10.036,26.475,10.036 M26.484,9.264c-0.699,0.001-1.369,0.134-1.987,0.36
				c-0.289,2.096,1.15,4.547,3.088,6.273c3.932,2.457,0.888,5.41-2.641,8.071c0.44,0.064,0.892,0.108,1.36,0.107
				c1.489-0.001,2.879-0.335,3.898-0.942l6.548-4.204c1.779-1.253,1.41-3.289-0.68-4.539l-6.446-4.191
				C28.765,9.594,27.655,9.262,26.484,9.264L26.484,9.264z"/>
		</g>
	</g>
</g>
<g id="Rice">
	<g>
		<path class="st7" d="M28.583,28.188c-0.705,0-1.838-0.357-2.806-0.89c-1.348-0.756-1.82-1.527-1.421-1.746
			c0.086-0.048,0.218-0.072,0.39-0.072c0.678,0,1.765,0.357,2.718,0.889c1.378,0.756,1.916,1.527,1.519,1.747
			C28.897,28.164,28.762,28.188,28.583,28.188z"/>
		<path class="st8" d="M24.743,25.596c0.506,0,1.523,0.267,2.575,0.855c1.417,0.777,1.748,1.453,1.513,1.583
			c-0.057,0.031-0.167,0.038-0.25,0.038c-0.524,0-1.582-0.268-2.653-0.856c-1.385-0.776-1.665-1.453-1.429-1.582
			C24.556,25.603,24.663,25.596,24.743,25.596 M24.751,25.365c-0.222,0-0.406,0.034-0.536,0.106
			c-0.551,0.302,0.067,1.157,1.411,1.91c1.045,0.574,2.215,0.924,2.959,0.923c0.232,0,0.421-0.034,0.551-0.106
			c0.546-0.302-0.151-1.157-1.525-1.91C26.584,25.713,25.464,25.364,24.751,25.365L24.751,25.365z"/>
	</g>
	<g>
		<path class="st9" d="M22.175,8.209c-0.622,0.001-1.04-0.112-1.091-0.295c-0.081-0.298,0.794-0.837,2.165-1.134
			c0.503-0.11,0.997-0.168,1.429-0.169c0.605-0.001,1.02,0.112,1.084,0.295c0.105,0.298-0.733,0.838-2.118,1.134
			C23.128,8.151,22.619,8.209,22.175,8.209z"/>
		<path class="st10" d="M24.674,6.727L24.674,6.727c0.637-0.001,0.912,0.126,0.942,0.212c0.062,0.176-0.586,0.686-2.007,0.991
			c-0.501,0.107-0.994,0.164-1.423,0.164c-0.652,0.001-0.925-0.126-0.949-0.212c-0.049-0.176,0.635-0.686,2.047-0.991
			C23.774,6.785,24.254,6.728,24.674,6.727 M24.684,6.495c-0.428,0.001-0.936,0.057-1.468,0.173
			c-1.365,0.296-2.393,0.868-2.283,1.277c0.068,0.248,0.549,0.38,1.232,0.379c0.442-0.001,0.967-0.057,1.515-0.173
			c1.384-0.296,2.375-0.868,2.229-1.278C25.821,6.626,25.344,6.494,24.684,6.495L24.684,6.495z"/>
	</g>
	<g>
		<path class="st9" d="M38.363,12.719c-0.434,0.001-0.926-0.041-1.422-0.121c-0.723-0.116-1.383-0.301-1.857-0.519
			c-0.413-0.192-0.639-0.394-0.607-0.541c0.044-0.204,0.555-0.336,1.304-0.337c0.423-0.001,0.901,0.041,1.386,0.121
			c1.522,0.249,2.546,0.759,2.505,1.061C39.643,12.586,39.13,12.718,38.363,12.719z"/>
		<path class="st10" d="M35.797,11.316L35.797,11.316c0.41-0.001,0.877,0.04,1.35,0.118c1.567,0.256,2.381,0.743,2.357,0.921
			c-0.013,0.096-0.341,0.247-1.163,0.248c-0.42,0.001-0.897-0.04-1.379-0.118c-0.701-0.113-1.339-0.291-1.794-0.501
			c-0.388-0.18-0.544-0.341-0.527-0.42C34.66,11.469,34.992,11.317,35.797,11.316 M35.762,11.085
			c-0.813,0.001-1.39,0.153-1.449,0.426c-0.092,0.415,1.069,0.952,2.607,1.2c0.528,0.085,1.03,0.125,1.464,0.124
			c0.838-0.001,1.419-0.153,1.456-0.426c0.054-0.415-1.141-0.952-2.655-1.2C36.67,11.124,36.183,11.084,35.762,11.085L35.762,11.085
			z"/>
	</g>
	<g>
		<path class="st9" d="M40.185,19.287c-0.398,0-0.68-0.06-0.794-0.171c-0.137-0.134-0.04-0.364,0.257-0.616
			c0.336-0.287,0.881-0.572,1.532-0.803c0.743-0.266,1.548-0.424,2.16-0.425c0.386,0,0.664,0.06,0.784,0.171
			c0.3,0.276-0.321,0.927-1.713,1.42C41.651,19.128,40.817,19.287,40.185,19.287z"/>
		<path class="st10" d="M43.37,17.388L43.37,17.388c0.361,0,0.552,0.058,0.606,0.109c0.177,0.163-0.247,0.756-1.676,1.263
			c-0.735,0.257-1.537,0.411-2.14,0.412c-0.371,0-0.563-0.058-0.615-0.109c-0.167-0.163,0.304-0.756,1.741-1.263
			C42.008,17.543,42.784,17.389,43.37,17.388 M43.31,17.156c-0.62,0.001-1.436,0.151-2.236,0.438
			c-1.39,0.491-2.224,1.197-1.838,1.575c0.162,0.158,0.514,0.234,0.973,0.234c0.643-0.001,1.491-0.151,2.312-0.438
			c1.39-0.491,2.163-1.197,1.749-1.576C44.099,17.232,43.753,17.156,43.31,17.156L43.31,17.156z"/>
	</g>
	<g>
		<path class="st9" d="M31.558,26.746c-0.13,0-0.236-0.017-0.315-0.052c-0.217-0.095-0.25-0.342-0.091-0.659
			c0.18-0.361,0.573-0.774,1.102-1.163c0.826-0.615,1.844-1.045,2.488-1.046c0.125,0,0.227,0.017,0.304,0.052
			c0.441,0.196,0.185,0.993-0.917,1.823C33.294,26.316,32.23,26.746,31.558,26.746z"/>
		<path class="st10" d="M34.756,23.943L34.756,23.943c0.077,0,0.136,0.009,0.175,0.026c0.261,0.116,0.166,0.806-0.967,1.659
			c-0.895,0.658-1.895,1.003-2.413,1.003c-0.081,0-0.141-0.009-0.18-0.026c-0.263-0.116-0.122-0.806,1.049-1.659
			C33.301,24.288,34.258,23.943,34.756,23.943 M34.729,23.711c-0.689,0-1.745,0.423-2.638,1.089
			c-1.136,0.827-1.586,1.716-0.975,1.985c0.12,0.053,0.273,0.078,0.449,0.078c0.722,0,1.829-0.423,2.733-1.088
			c1.098-0.827,1.472-1.716,0.865-1.985C35.044,23.736,34.897,23.711,34.729,23.711L34.729,23.711z"/>
	</g>
	<g>
		<path class="st9" d="M20.875,26.918c-0.653,0-1.433-0.083-2.193-0.234c-0.832-0.165-1.55-0.394-2.023-0.642
			c-0.412-0.218-0.59-0.434-0.477-0.576c0.124-0.158,0.604-0.253,1.284-0.253c0.637,0,1.396,0.083,2.141,0.233
			c0.823,0.165,1.544,0.394,2.032,0.642c0.431,0.218,0.631,0.434,0.53,0.576C22.056,26.823,21.573,26.917,20.875,26.918z"/>
		<path class="st10" d="M17.449,25.328L17.449,25.328c0.615,0,1.352,0.08,2.077,0.227c0.8,0.161,1.499,0.381,1.969,0.62
			c0.406,0.205,0.534,0.374,0.479,0.451c-0.06,0.084-0.426,0.175-1.088,0.175c-0.629,0-1.383-0.08-2.121-0.227
			c-0.807-0.161-1.501-0.381-1.956-0.62c-0.388-0.205-0.5-0.374-0.44-0.451C16.435,25.42,16.801,25.329,17.449,25.328
			 M17.482,25.097c-0.753,0-1.317,0.112-1.488,0.33c-0.319,0.402,0.839,1.014,2.605,1.366c0.814,0.161,1.612,0.24,2.266,0.24
			c0.775,0,1.344-0.112,1.498-0.33c0.282-0.402-0.925-1.014-2.676-1.366C18.892,25.176,18.118,25.097,17.482,25.097L17.482,25.097z"
			/>
	</g>
	<g>
		<path class="st9" d="M11.393,14.793c-1.228,0.001-1.867-0.235-1.843-0.458c0.016-0.15,0.31-0.335,0.786-0.497
			c0.539-0.184,1.246-0.32,1.992-0.383c0.293-0.025,0.574-0.037,0.838-0.037c1.2-0.001,1.843,0.235,1.839,0.458
			c-0.005,0.308-1.135,0.744-2.756,0.88C11.95,14.78,11.663,14.792,11.393,14.793z"/>
		<path class="st10" d="M13.138,13.533L13.138,13.533c1.11-0.001,1.697,0.207,1.694,0.358c-0.002,0.08-0.199,0.229-0.637,0.381
			c-0.513,0.177-1.202,0.308-1.94,0.369c-0.285,0.024-0.565,0.036-0.833,0.036c-1.131,0.001-1.713-0.207-1.697-0.358
			c0.008-0.08,0.218-0.229,0.665-0.381c0.519-0.177,1.204-0.308,1.93-0.369C12.601,13.546,12.875,13.533,13.138,13.533
			 M13.192,13.302c-0.27,0-0.557,0.013-0.857,0.038c-1.586,0.135-2.915,0.586-2.961,1.009c-0.037,0.343,0.801,0.561,1.988,0.56
			c0.277,0,0.573-0.013,0.88-0.038c1.619-0.135,2.93-0.586,2.936-1.009C15.183,13.519,14.348,13.3,13.192,13.302L13.192,13.302z"/>
	</g>
	<g>
		<path class="st9" d="M12.456,21.099c-0.496,0-1.041-0.042-1.573-0.122c-0.776-0.117-1.451-0.301-1.897-0.519
			c-0.389-0.191-0.561-0.393-0.46-0.54c0.139-0.204,0.783-0.336,1.641-0.336c0.485,0,1.015,0.041,1.536,0.121
			c1.635,0.249,2.582,0.759,2.401,1.06C13.981,20.967,13.334,21.099,12.456,21.099z"/>
		<path class="st10" d="M10.136,19.697L10.136,19.697c0.471,0,0.988,0.04,1.496,0.118c0.744,0.113,1.396,0.291,1.836,0.501
			c0.38,0.18,0.504,0.34,0.456,0.419c-0.058,0.095-0.5,0.247-1.442,0.248c-0.481,0-1.009-0.041-1.526-0.118
			c-0.753-0.113-1.404-0.292-1.834-0.501c-0.366-0.18-0.475-0.34-0.421-0.419C8.766,19.85,9.213,19.698,10.136,19.697
			 M10.197,19.466c-0.933,0.001-1.66,0.152-1.848,0.425c-0.286,0.414,0.809,0.951,2.459,1.2c0.567,0.085,1.123,0.125,1.62,0.125
			c0.959-0.001,1.692-0.152,1.855-0.425c0.247-0.414-0.883-0.952-2.51-1.2C11.222,19.506,10.681,19.465,10.197,19.466L10.197,19.466
			z"/>
	</g>
	<g>
		<path class="st7" d="M9.22,17.985c-0.733,0.001-1.205-0.113-1.232-0.296c-0.021-0.145,0.249-0.353,0.721-0.557
			c0.533-0.232,1.258-0.436,2.041-0.575c0.615-0.109,1.209-0.167,1.72-0.168c0.714-0.001,1.184,0.113,1.225,0.296
			c0.033,0.145-0.217,0.354-0.673,0.557c-0.522,0.232-1.246,0.436-2.039,0.575C10.355,17.926,9.745,17.985,9.22,17.985z"/>
		<path class="st8" d="M12.443,16.505L12.443,16.505c0.753-0.001,1.054,0.126,1.073,0.212c0.017,0.078-0.155,0.242-0.583,0.434
			c-0.501,0.223-1.201,0.421-1.971,0.555c-0.611,0.107-1.202,0.163-1.708,0.164c-0.769,0.001-1.068-0.126-1.08-0.212
			c-0.026-0.176,0.873-0.685,2.596-0.989C11.369,16.562,11.947,16.505,12.443,16.505 M12.498,16.273
			c-0.506,0.001-1.117,0.057-1.768,0.173c-1.666,0.295-2.984,0.866-2.927,1.276c0.036,0.248,0.579,0.38,1.384,0.379
			c0.521,0,1.15-0.057,1.818-0.173c1.687-0.295,2.964-0.866,2.87-1.276C13.818,16.404,13.28,16.272,12.498,16.273L12.498,16.273z"/>
	</g>
	<g>
		<path class="st7" d="M40.687,16.195c-0.045,0-0.086-0.005-0.127-0.015c-0.467-0.115-0.705-0.936-0.319-1.93
			c0.339-0.911,0.992-1.456,1.435-1.456c0.043,0,0.082,0.005,0.121,0.015c0.448,0.115,0.721,0.936,0.378,1.929
			C41.846,15.649,41.156,16.195,40.687,16.195z"/>
		<path class="st8" d="M41.648,12.678l0.113,0.238c0.265,0.068,0.597,0.758,0.242,1.779c-0.327,0.896-0.985,1.377-1.393,1.377
			c-0.003,0-0.006,0-0.008,0c-0.276-0.068-0.587-0.758-0.191-1.779c0.333-0.902,0.963-1.383,1.294-1.384L41.648,12.678
			 M41.648,12.678c-0.574,0.001-1.242,0.637-1.576,1.529c-0.388,0.99-0.198,1.921,0.444,2.08c0.063,0.016,0.129,0.023,0.196,0.023
			c0.61-0.001,1.314-0.636,1.636-1.529c0.339-0.99,0.101-1.922-0.514-2.08C41.773,12.686,41.711,12.678,41.648,12.678L41.648,12.678
			z"/>
	</g>
	<g>
		<path class="st7" d="M27.59,8.686c-0.039,0-0.075-0.005-0.109-0.015c-0.389-0.115-0.446-0.936,0.077-1.928
			c0.463-0.911,1.134-1.456,1.522-1.456c0.037,0,0.071,0.005,0.103,0.015c0.372,0.115,0.464,0.935-0.016,1.928
			C28.71,8.141,28.003,8.686,27.59,8.686z"/>
		<path class="st8" d="M29.076,5.171l0.056,0.238c0.22,0.068,0.387,0.757-0.109,1.778c-0.451,0.896-1.118,1.376-1.478,1.377
			c-0.002,0-0.005,0-0.007,0c-0.23-0.068-0.375-0.757,0.16-1.778c0.457-0.902,1.095-1.383,1.385-1.383L29.076,5.171 M29.076,5.171
			c-0.503,0.001-1.202,0.637-1.658,1.529c-0.523,0.99-0.53,1.92,0.005,2.079c0.053,0.016,0.109,0.023,0.168,0.023
			c0.537-0.001,1.274-0.636,1.719-1.529c0.477-0.99,0.434-1.921-0.076-2.079C29.184,5.179,29.131,5.171,29.076,5.171L29.076,5.171z"
			/>
	</g>
	<g>
		<path class="st7" d="M20.488,10.415c-0.528,0.001-1.164-0.102-1.785-0.288c-0.616-0.186-1.136-0.432-1.467-0.693
			c-0.288-0.229-0.397-0.449-0.295-0.59c0.101-0.14,0.428-0.224,0.874-0.224c0.512-0.001,1.125,0.102,1.731,0.288
			c0.608,0.186,1.134,0.432,1.481,0.693c0.307,0.229,0.436,0.45,0.344,0.59C21.278,10.331,20.947,10.415,20.488,10.415z"/>
		<path class="st8" d="M17.833,8.505l-0.038,0.232c0.486-0.001,1.096,0.101,1.678,0.28c1.341,0.408,1.865,0.962,1.752,1.132
			c-0.05,0.075-0.293,0.151-0.724,0.151c-0.5,0.001-1.129-0.101-1.723-0.28c-1.342-0.408-1.823-0.962-1.7-1.132
			c0.054-0.075,0.297-0.151,0.716-0.151L17.833,8.505 M17.833,8.505c-0.504,0.001-0.887,0.1-1.03,0.297
			c-0.29,0.396,0.518,1.037,1.824,1.433c0.662,0.198,1.321,0.297,1.847,0.297c0.523-0.001,0.911-0.1,1.041-0.297
			c0.258-0.396-0.6-1.037-1.896-1.433C18.975,8.603,18.341,8.504,17.833,8.505L17.833,8.505z"/>
	</g>
</g>
</svg>
